<?xml version="1.0" encoding="UTF-8" ?>
<svg version="1.1" width="128" height="128" xmlns="http://www.w3.org/2000/svg" shape-rendering="crispEdges">
<rect x="24" y="48" width="8" height="8" fill="#000000" />
<rect x="88" y="48" width="8" height="8" fill="#000000" />
<rect x="16" y="56" width="8" height="8" fill="#000000" />
<rect x="24" y="56" width="8" height="8" fill="#9F9F9F" />
<rect x="32" y="56" width="8" height="8" fill="#000000" />
<rect x="80" y="56" width="8" height="8" fill="#000000" />
<rect x="88" y="56" width="8" height="8" fill="#A55000" />
<rect x="96" y="56" width="8" height="8" fill="#000000" />
<rect x="8" y="64" width="8" height="8" fill="#000000" />
<rect x="16" y="64" width="8" height="8" fill="#626262" />
<rect x="24" y="64" width="8" height="8" fill="#9F9F9F" />
<rect x="32" y="64" width="8" height="8" fill="#626262" />
<rect x="40" y="64" width="8" height="8" fill="#000000" />
<rect x="48" y="64" width="8" height="8" fill="#000000" />
<rect x="56" y="64" width="8" height="8" fill="#000000" />
<rect x="64" y="64" width="8" height="8" fill="#000000" />
<rect x="72" y="64" width="8" height="8" fill="#000000" />
<rect x="80" y="64" width="8" height="8" fill="#743801" />
<rect x="88" y="64" width="8" height="8" fill="#A55000" />
<rect x="96" y="64" width="8" height="8" fill="#743801" />
<rect x="104" y="64" width="8" height="8" fill="#000000" />
<rect x="8" y="72" width="8" height="8" fill="#000000" />
<rect x="16" y="72" width="8" height="8" fill="#626262" />
<rect x="24" y="72" width="8" height="8" fill="#7F7F7F" />
<rect x="32" y="72" width="8" height="8" fill="#7F7F7F" />
<rect x="40" y="72" width="8" height="8" fill="#7F7F7F" />
<rect x="48" y="72" width="8" height="8" fill="#7F7F7F" />
<rect x="56" y="72" width="8" height="8" fill="#874100" />
<rect x="64" y="72" width="8" height="8" fill="#874100" />
<rect x="72" y="72" width="8" height="8" fill="#874100" />
<rect x="80" y="72" width="8" height="8" fill="#874100" />
<rect x="88" y="72" width="8" height="8" fill="#874100" />
<rect x="96" y="72" width="8" height="8" fill="#743801" />
<rect x="104" y="72" width="8" height="8" fill="#000000" />
<rect x="8" y="80" width="8" height="8" fill="#000000" />
<rect x="16" y="80" width="8" height="8" fill="#7F7F7F" />
<rect x="24" y="80" width="8" height="8" fill="#7F7F7F" />
<rect x="32" y="80" width="8" height="8" fill="#000000" />
<rect x="40" y="80" width="8" height="8" fill="#7F7F7F" />
<rect x="48" y="80" width="8" height="8" fill="#F1F1F1" />
<rect x="56" y="80" width="8" height="8" fill="#F1F1F1" />
<rect x="64" y="80" width="8" height="8" fill="#874100" />
<rect x="72" y="80" width="8" height="8" fill="#874100" />
<rect x="80" y="80" width="8" height="8" fill="#000000" />
<rect x="88" y="80" width="8" height="8" fill="#874100" />
<rect x="96" y="80" width="8" height="8" fill="#874100" />
<rect x="104" y="80" width="8" height="8" fill="#000000" />
<rect x="8" y="88" width="8" height="8" fill="#000000" />
<rect x="16" y="88" width="8" height="8" fill="#7F7F7F" />
<rect x="24" y="88" width="8" height="8" fill="#7F7F7F" />
<rect x="32" y="88" width="8" height="8" fill="#000000" />
<rect x="40" y="88" width="8" height="8" fill="#F1F1F1" />
<rect x="48" y="88" width="8" height="8" fill="#F1F1F1" />
<rect x="56" y="88" width="8" height="8" fill="#000000" />
<rect x="64" y="88" width="8" height="8" fill="#F1F1F1" />
<rect x="72" y="88" width="8" height="8" fill="#F1F1F1" />
<rect x="80" y="88" width="8" height="8" fill="#000000" />
<rect x="88" y="88" width="8" height="8" fill="#874100" />
<rect x="96" y="88" width="8" height="8" fill="#874100" />
<rect x="104" y="88" width="8" height="8" fill="#000000" />
<rect x="0" y="96" width="8" height="8" fill="#000000" />
<rect x="8" y="96" width="8" height="8" fill="#000000" />
<rect x="16" y="96" width="8" height="8" fill="#000000" />
<rect x="24" y="96" width="8" height="8" fill="#F1F1F1" />
<rect x="32" y="96" width="8" height="8" fill="#F1F1F1" />
<rect x="40" y="96" width="8" height="8" fill="#F1F1F1" />
<rect x="48" y="96" width="8" height="8" fill="#000000" />
<rect x="56" y="96" width="8" height="8" fill="#F1F1F1" />
<rect x="64" y="96" width="8" height="8" fill="#000000" />
<rect x="72" y="96" width="8" height="8" fill="#F1F1F1" />
<rect x="80" y="96" width="8" height="8" fill="#F1F1F1" />
<rect x="88" y="96" width="8" height="8" fill="#F1F1F1" />
<rect x="96" y="96" width="8" height="8" fill="#000000" />
<rect x="104" y="96" width="8" height="8" fill="#000000" />
<rect x="112" y="96" width="8" height="8" fill="#000000" />
<rect x="8" y="104" width="8" height="8" fill="#000000" />
<rect x="16" y="104" width="8" height="8" fill="#F1F1F1" />
<rect x="24" y="104" width="8" height="8" fill="#F1F1F1" />
<rect x="32" y="104" width="8" height="8" fill="#F1F1F1" />
<rect x="40" y="104" width="8" height="8" fill="#F1F1F1" />
<rect x="48" y="104" width="8" height="8" fill="#F1F1F1" />
<rect x="56" y="104" width="8" height="8" fill="#F1F1F1" />
<rect x="64" y="104" width="8" height="8" fill="#F1F1F1" />
<rect x="72" y="104" width="8" height="8" fill="#F1F1F1" />
<rect x="80" y="104" width="8" height="8" fill="#F1F1F1" />
<rect x="88" y="104" width="8" height="8" fill="#F1F1F1" />
<rect x="96" y="104" width="8" height="8" fill="#F1F1F1" />
<rect x="104" y="104" width="8" height="8" fill="#000000" />
<rect x="16" y="112" width="8" height="8" fill="#000000" />
<rect x="24" y="112" width="8" height="8" fill="#000000" />
<rect x="32" y="112" width="8" height="8" fill="#000000" />
<rect x="40" y="112" width="8" height="8" fill="#000000" />
<rect x="48" y="112" width="8" height="8" fill="#000000" />
<rect x="56" y="112" width="8" height="8" fill="#000000" />
<rect x="64" y="112" width="8" height="8" fill="#000000" />
<rect x="72" y="112" width="8" height="8" fill="#000000" />
<rect x="80" y="112" width="8" height="8" fill="#000000" />
<rect x="88" y="112" width="8" height="8" fill="#000000" />
<rect x="96" y="112" width="8" height="8" fill="#000000" />
</svg>